<svg width="192" height="192" version="1.1" xmlns="http://www.w3.org/2000/svg" desc="Created with imagetracer.js version 1.2.6" ><path fill="rgb(0,0,0)" stroke="rgb(0,0,0)" stroke-width="1" opacity="0" d="M 0 0 L 192 0 L 192 192 L 0 192 L 0 0 Z M 82 23 L 57 30 L 36 44 L 23 58 Q 24 61 21 60 L 13 77 L 10 88 L 10 98 L 9 99 L 11 124 L 20 145 L 27 154 Q 36 165 49 172 L 64 179 L 68 179 L 77 182 L 105 182 L 116 179 L 136 169 L 146 161 Q 145 158 148 159 L 152 154 Q 151 151 154 152 L 162 140 L 165 130 L 168 125 L 171 105 L 170 103 L 118 103 L 116 106 L 113 108 Q 114 110 112 109 L 109 113 L 106 115 Q 107 117 105 116 L 103 119 L 102 119 L 93 128 L 94 129 L 136 129 L 136 132 L 133 136 L 121 147 Q 118 146 119 149 L 101 156 L 80 156 L 58 146 Q 42 134 36 113 L 36 93 L 40 82 L 46 72 L 58 60 L 70 53 L 74 53 L 82 50 L 99 50 L 105 45 Q 107 46 106 43 L 109 43 L 109 41 L 122 33 L 123 31 Q 108 21 82 23 Z M 161 27 L 157 30 L 103 54 Q 100 53 101 56 L 113 57 L 121 60 L 119 63 L 116 65 Q 117 67 115 66 L 79 102 L 79 130 L 81 130 L 92 119 Q 94 120 93 118 L 105 106 L 106 106 L 106 105 L 140 71 L 149 85 Q 148 88 152 86 L 152 80 L 155 72 L 157 57 L 159 52 L 159 46 L 163 30 Q 164 26 161 27 Z " /><path fill="rgb(112,113,113)" stroke="rgb(112,113,113)" stroke-width="1" opacity="0.3803921568627451" d="M 160.5 27 Q 164.3 26 163 29 L 159.5 29 L 116.5 49 L 117.5 47 L 125.5 43 L 128.5 43 L 147.5 33 L 150.5 33 L 160.5 27 Z " /><path fill="rgb(112,113,113)" stroke="rgb(112,113,113)" stroke-width="1" opacity="0.3803921568627451" d="M 161.5 30 L 162 35.5 L 160.5 40 L 160 35.5 L 161.5 30 Z " /><path fill="rgb(112,113,113)" stroke="rgb(112,113,113)" stroke-width="1" opacity="0.3803921568627451" d="M 159.5 41 L 160 43.5 L 159 43.5 L 159.5 41 Z " /><path fill="rgb(112,113,113)" stroke="rgb(112,113,113)" stroke-width="1" opacity="0.3803921568627451" d="M 158.5 45 L 159 51.5 L 156.5 59 L 156 55.5 L 158.5 45 Z " /><path fill="rgb(112,113,113)" stroke="rgb(112,113,113)" stroke-width="1" opacity="0.3803921568627451" d="M 113.5 49 L 115 49.5 L 104 54.5 L 106 55.5 L 102 56 L 103.5 53 L 108.5 52 L 113.5 49 Z " /><path fill="rgb(112,113,113)" stroke="rgb(112,113,113)" stroke-width="1" opacity="0.3803921568627451" d="M 108.5 56 L 112 56.5 L 108.5 57 L 108.5 56 Z " /><path fill="rgb(112,113,113)" stroke="rgb(112,113,113)" stroke-width="1" opacity="0.3803921568627451" d="M 114.5 57 L 124 58.5 L 83 98.5 L 87.5 93 Q 89.8 93.8 89 91.5 L 93 89 L 94.5 86 Q 96.8 86.8 96 84.5 L 99 83 L 101.5 79 Q 103.8 79.8 103 77.5 L 106 76 L 107.5 73 Q 109.8 73.8 109 71.5 L 113 68.5 L 114.5 66 Q 116.8 66.8 116 64.5 L 119 63 L 120.5 60 L 122 59.5 Q 119.9 57.1 114.5 58 L 114.5 57 Z " /><path fill="rgb(112,113,113)" stroke="rgb(112,113,113)" stroke-width="1" opacity="0.3803921568627451" d="M 155.5 60 L 156 62.5 L 155 62.5 L 155.5 60 Z " /><path fill="rgb(112,113,113)" stroke="rgb(112,113,113)" stroke-width="1" opacity="0.3803921568627451" d="M 155.5 64 L 156 65.5 L 152.5 78 L 152 75.5 L 154 65.5 L 155.5 64 Z " /><path fill="rgb(112,113,113)" stroke="rgb(112,113,113)" stroke-width="1" opacity="0.3803921568627451" d="M 139.5 70 L 142 71.5 L 150.5 84 L 151.5 79 L 152 86 L 149 86 L 149 83 Q 146.3 84.1 147 81.5 L 139.5 71 L 80.5 130 L 79 130 L 79 101.5 L 81.5 99 L 82 100.5 L 80 102.5 L 80 127.5 L 81.5 127 Q 83.8 127.8 83 125.5 L 124 85.5 Q 123.3 83.3 125.5 84 L 137 72.5 L 137 71 L 139.5 70 Z " /><path fill="rgb(112,113,113)" stroke="rgb(112,113,113)" stroke-width="1" opacity="0.3803921568627451" d="M 51.5 140 L 53.5 143 L 51.5 140 Z " /><path fill="rgb(132,213,230)" stroke="rgb(132,213,230)" stroke-width="1" opacity="0.19215686274509805" d="M 114.5 37 L 113.5 39 L 114.5 37 Z " /><path fill="rgb(132,213,230)" stroke="rgb(132,213,230)" stroke-width="1" opacity="0.19215686274509805" d="M 35.5 44 L 33.5 47 L 35.5 44 Z " /><path fill="rgb(132,213,230)" stroke="rgb(132,213,230)" stroke-width="1" opacity="0.19215686274509805" d="M 103.5 45 L 101.5 48 L 103.5 45 Z " /><path fill="rgb(132,213,230)" stroke="rgb(132,213,230)" stroke-width="1" opacity="0.19215686274509805" d="M 99.5 48 L 98.5 50 L 97 49.5 L 99.5 48 Z " /><path fill="rgb(132,213,230)" stroke="rgb(132,213,230)" stroke-width="1" opacity="0.19215686274509805" d="M 84.5 49 L 96 49.5 L 84.5 50 L 84.5 49 Z " /><path fill="rgb(132,213,230)" stroke="rgb(132,213,230)" stroke-width="1" opacity="0.19215686274509805" d="M 26.5 54 L 25.5 56 L 26.5 54 Z " /><path fill="rgb(132,213,230)" stroke="rgb(132,213,230)" stroke-width="1" opacity="0.19215686274509805" d="M 66.5 54 L 65.5 56 L 64 55.5 L 66.5 54 Z " /><path fill="rgb(132,213,230)" stroke="rgb(132,213,230)" stroke-width="1" opacity="0.19215686274509805" d="M 61.5 57 L 60.5 59 L 58.5 60 L 59.5 58 L 61.5 57 Z " /><path fill="rgb(132,213,230)" stroke="rgb(132,213,230)" stroke-width="1" opacity="0.19215686274509805" d="M 54.5 62 L 52.5 65 L 54.5 62 Z " /><path fill="rgb(132,213,230)" stroke="rgb(132,213,230)" stroke-width="1" opacity="0.19215686274509805" d="M 50.5 66 L 49.5 68 L 50.5 66 Z " /><path fill="rgb(132,213,230)" stroke="rgb(132,213,230)" stroke-width="1" opacity="0.19215686274509805" d="M 112.5 68 L 111.5 70 L 112.5 68 Z " /><path fill="rgb(132,213,230)" stroke="rgb(132,213,230)" stroke-width="1" opacity="0.19215686274509805" d="M 47.5 69 L 46.5 71 L 47.5 69 Z " /><path fill="rgb(132,213,230)" stroke="rgb(132,213,230)" stroke-width="1" opacity="0.19215686274509805" d="M 9.5 98 L 10 103.5 L 9 103.5 L 9.5 98 Z " /><path fill="rgb(132,213,230)" stroke="rgb(132,213,230)" stroke-width="1" opacity="0.19215686274509805" d="M 35.5 100 L 36 105.5 L 35 105.5 L 35.5 100 Z " /><path fill="rgb(132,213,230)" stroke="rgb(132,213,230)" stroke-width="1" opacity="0.19215686274509805" d="M 99.5 121 L 98.5 123 L 99.5 121 Z " /><path fill="rgb(132,213,230)" stroke="rgb(132,213,230)" stroke-width="1" opacity="0.19215686274509805" d="M 161.5 139 L 160.5 141 L 161.5 139 Z " /><path fill="rgb(132,213,230)" stroke="rgb(132,213,230)" stroke-width="1" opacity="0.19215686274509805" d="M 20.5 144 L 21.5 146 L 20.5 144 Z " /><path fill="rgb(132,213,230)" stroke="rgb(132,213,230)" stroke-width="1" opacity="0.19215686274509805" d="M 151.5 153 L 149.5 156 L 151.5 153 Z " /><path fill="rgb(132,213,230)" stroke="rgb(132,213,230)" stroke-width="1" opacity="0.19215686274509805" d="M 147.5 157 L 148 159 L 146 158.5 L 147.5 157 Z " /><path fill="rgb(132,213,230)" stroke="rgb(132,213,230)" stroke-width="1" opacity="0.19215686274509805" d="M 144.5 160 L 146 160.5 L 142.5 163 L 144.5 160 Z " /><path fill="rgb(132,213,230)" stroke="rgb(132,213,230)" stroke-width="1" opacity="0.19215686274509805" d="M 134.5 168 L 136 168.5 L 133.5 170 L 134.5 168 Z " /><path fill="rgb(132,213,230)" stroke="rgb(132,213,230)" stroke-width="1" opacity="0.19215686274509805" d="M 46.5 169 L 48.5 172 L 46.5 169 Z " /><path fill="rgb(132,213,230)" stroke="rgb(132,213,230)" stroke-width="1" opacity="0.19215686274509805" d="M 131.5 170 L 130.5 172 L 128.5 173 L 129.5 171 L 131.5 170 Z " /><path fill="rgb(132,213,230)" stroke="rgb(132,213,230)" stroke-width="1" opacity="0.19215686274509805" d="M 97.5 181 L 100 181.5 L 97.5 182 L 97.5 181 Z " /><path fill="rgb(126,126,124)" stroke="rgb(126,126,124)" stroke-width="1" opacity="0.996078431372549" d="M 159.5 29 L 162 29.5 L 150.5 84 L 140.5 70 L 137 71 L 137 72.5 L 125.5 84 Q 123.3 83.3 124 85.5 L 83 125.5 Q 83.8 127.8 81.5 127 L 80 127.5 L 80 102.5 L 82 99 L 83.5 99 L 124 58.5 L 119.5 57 L 106.5 56 L 104 54.5 L 159.5 29 Z " /><path fill="rgb(81,168,197)" stroke="rgb(81,168,197)" stroke-width="1" opacity="0.3764705882352941" d="M 84.5 23 L 86.5 23 L 96.5 23 L 108 25.5 L 104.5 26 L 103.5 25 L 77.5 25 L 73.5 26 L 73.5 25 L 84.5 23 Z " /><path fill="rgb(81,168,197)" stroke="rgb(81,168,197)" stroke-width="1" opacity="0.3764705882352941" d="M 109.5 26 L 112 26.5 L 109.5 27 L 109.5 26 Z " /><path fill="rgb(81,168,197)" stroke="rgb(81,168,197)" stroke-width="1" opacity="0.3764705882352941" d="M 64.5 27 L 69 27.5 L 63.5 29 L 64.5 27 Z " /><path fill="rgb(81,168,197)" stroke="rgb(81,168,197)" stroke-width="1" opacity="0.3764705882352941" d="M 113.5 27 L 122 29 L 122 33 L 120.5 33 L 121 31.5 Q 121.8 29.3 119.5 30 L 113.5 28 L 113.5 27 Z " /><path fill="rgb(81,168,197)" stroke="rgb(81,168,197)" stroke-width="1" opacity="0.3764705882352941" d="M 60.5 29 L 62 29.5 Q 41.2 37.7 28 53.5 L 17.5 70 L 17 67.5 L 32 47 L 40 41.5 Q 39.3 39.3 41.5 40 Q 49.3 32.8 60.5 29 Z " /><path fill="rgb(81,168,197)" stroke="rgb(81,168,197)" stroke-width="1" opacity="0.3764705882352941" d="M 118.5 33 L 119 35 L 117 34.5 L 118.5 33 Z " /><path fill="rgb(81,168,197)" stroke="rgb(81,168,197)" stroke-width="1" opacity="0.3764705882352941" d="M 115.5 35 L 116 37 L 112.5 39 L 115.5 35 Z " /><path fill="rgb(81,168,197)" stroke="rgb(81,168,197)" stroke-width="1" opacity="0.3764705882352941" d="M 106.5 42 L 104.5 45 L 106.5 42 Z " /><path fill="rgb(81,168,197)" stroke="rgb(81,168,197)" stroke-width="1" opacity="0.3764705882352941" d="M 102.5 45 L 100.5 48 L 102.5 45 Z " /><path fill="rgb(81,168,197)" stroke="rgb(81,168,197)" stroke-width="1" opacity="0.3764705882352941" d="M 81.5 49 L 84 49.5 L 81.5 50 L 81.5 49 Z " /><path fill="rgb(81,168,197)" stroke="rgb(81,168,197)" stroke-width="1" opacity="0.3764705882352941" d="M 76.5 50 L 79 50.5 L 70.5 53 L 70.5 52 L 76.5 50 Z " /><path fill="rgb(81,168,197)" stroke="rgb(81,168,197)" stroke-width="1" opacity="0.3764705882352941" d="M 63.5 55 L 62.5 57 L 60.5 58 L 61.5 56 L 63.5 55 Z " /><path fill="rgb(81,168,197)" stroke="rgb(81,168,197)" stroke-width="1" opacity="0.3764705882352941" d="M 58.5 58 L 57.5 60 L 58.5 58 Z " /><path fill="rgb(81,168,197)" stroke="rgb(81,168,197)" stroke-width="1" opacity="0.3764705882352941" d="M 54.5 61 L 56 61.5 L 52 64.5 Q 52.8 66.8 50.5 66 L 49 69 L 47 68.5 L 54.5 61 Z " /><path fill="rgb(81,168,197)" stroke="rgb(81,168,197)" stroke-width="1" opacity="0.3764705882352941" d="M 45.5 71 L 45 72.5 L 39.5 82 L 40 80.5 L 45.5 71 Z " /><path fill="rgb(81,168,197)" stroke="rgb(81,168,197)" stroke-width="1" opacity="0.3764705882352941" d="M 15.5 73 L 16 74.5 L 13.5 80 L 13 77.5 L 15.5 73 Z " /><path fill="rgb(81,168,197)" stroke="rgb(81,168,197)" stroke-width="1" opacity="0.3764705882352941" d="M 12.5 81 L 13 83.5 L 10.5 96 L 10 87.5 L 12.5 81 Z " /><path fill="rgb(81,168,197)" stroke="rgb(81,168,197)" stroke-width="1" opacity="0.3764705882352941" d="M 38 83 L 40 83.5 L 37.5 88 L 37 86.5 L 38 83 Z " /><path fill="rgb(81,168,197)" stroke="rgb(81,168,197)" stroke-width="1" opacity="0.3764705882352941" d="M 35.5 94 L 36 99.5 L 35 99.5 L 35.5 94 Z " /><path fill="rgb(81,168,197)" stroke="rgb(81,168,197)" stroke-width="1" opacity="0.3764705882352941" d="M 117.5 103 L 169.5 103 L 170 103.5 L 170 111.5 L 169 111.5 L 169 104.5 L 168.5 104 L 118.5 104 L 95.5 128 L 137.5 128 L 138 129.5 Q 133.4 138.9 125.5 145 Q 117.6 152.1 105.5 155 L 105.5 154 Q 120.4 150.4 129 140.5 L 137 129.5 L 94.5 129 L 93 127.5 L 96 126 L 97.5 123 L 100 121.5 Q 99.3 119.3 101.5 120 L 103 117 L 106 115.5 L 107.5 113 Q 109.8 113.8 109 111.5 L 113 108.5 L 114.5 106 Q 116.8 106.8 116 104.5 L 117.5 103 Z " /><path fill="rgb(81,168,197)" stroke="rgb(81,168,197)" stroke-width="1" opacity="0.3764705882352941" d="M 35.5 106 L 36 111.5 L 35 111.5 L 35.5 106 Z " /><path fill="rgb(81,168,197)" stroke="rgb(81,168,197)" stroke-width="1" opacity="0.3764705882352941" d="M 10.5 110 L 11 113.5 L 10 113.5 L 10.5 110 Z " /><path fill="rgb(81,168,197)" stroke="rgb(81,168,197)" stroke-width="1" opacity="0.3764705882352941" d="M 168.5 114 L 169 120.5 L 166.5 126 L 166 124.5 L 168.5 114 Z " /><path fill="rgb(81,168,197)" stroke="rgb(81,168,197)" stroke-width="1" opacity="0.3764705882352941" d="M 10.5 115 L 13 124.5 L 12 124.5 L 10 118.5 L 10.5 115 Z " /><path fill="rgb(81,168,197)" stroke="rgb(81,168,197)" stroke-width="1" opacity="0.3764705882352941" d="M 37.5 117 Q 40.1 127.4 46 134.5 L 44 133.5 L 38 122.5 L 37.5 117 Z " /><path fill="rgb(81,168,197)" stroke="rgb(81,168,197)" stroke-width="1" opacity="0.3764705882352941" d="M 13.5 126 Q 21.1 150.4 39.5 164 L 46 168.5 L 44.5 169 L 37 164 Q 38.1 161.3 35.5 162 L 30 155 L 27 153.5 L 25 149 Q 22.3 150.1 23 147.5 L 17 138.5 L 13 129.5 L 13.5 126 Z " /><path fill="rgb(81,168,197)" stroke="rgb(81,168,197)" stroke-width="1" opacity="0.3764705882352941" d="M 163.5 133 L 164 134.5 L 162 135.5 L 163.5 133 Z " /><path fill="rgb(81,168,197)" stroke="rgb(81,168,197)" stroke-width="1" opacity="0.3764705882352941" d="M 47.5 136 L 53.5 143 L 56 144.5 L 54.5 145 L 47 137.5 L 47.5 136 Z " /><path fill="rgb(81,168,197)" stroke="rgb(81,168,197)" stroke-width="1" opacity="0.3764705882352941" d="M 161.5 137 L 162 138.5 L 160 139.5 L 161.5 137 Z " /><path fill="rgb(81,168,197)" stroke="rgb(81,168,197)" stroke-width="1" opacity="0.3764705882352941" d="M 159.5 141 L 159 142.5 L 154 152 L 150.5 154 L 154 149.5 L 159.5 141 Z " /><path fill="rgb(81,168,197)" stroke="rgb(81,168,197)" stroke-width="1" opacity="0.3764705882352941" d="M 57.5 146 L 67.5 152 L 75 154.5 L 72.5 155 Q 62 152.1 57.5 146 Z " /><path fill="rgb(81,168,197)" stroke="rgb(81,168,197)" stroke-width="1" opacity="0.3764705882352941" d="M 80.5 156 L 101 156.5 L 89.5 158 L 88.5 157 L 80.5 157 L 80.5 156 Z " /><path fill="rgb(81,168,197)" stroke="rgb(81,168,197)" stroke-width="1" opacity="0.3764705882352941" d="M 141.5 162 L 142 163.5 L 135.5 168 L 135.5 167 L 141.5 162 Z " /><path fill="rgb(81,168,197)" stroke="rgb(81,168,197)" stroke-width="1" opacity="0.3764705882352941" d="M 47.5 169 L 55 173.5 L 53.5 174 Q 48.5 172.5 47.5 169 Z " /><path fill="rgb(81,168,197)" stroke="rgb(81,168,197)" stroke-width="1" opacity="0.3764705882352941" d="M 127.5 172 L 126.5 174 L 123.5 175 L 123.5 174 L 127.5 172 Z " /><path fill="rgb(81,168,197)" stroke="rgb(81,168,197)" stroke-width="1" opacity="0.3764705882352941" d="M 120.5 175 L 122 175.5 L 115.5 179 L 115 177 L 120.5 175 Z " /><path fill="rgb(81,168,197)" stroke="rgb(81,168,197)" stroke-width="1" opacity="0.3764705882352941" d="M 60.5 176 L 68 178.5 L 64.5 179 L 60.5 177 L 60.5 176 Z " /><path fill="rgb(81,168,197)" stroke="rgb(81,168,197)" stroke-width="1" opacity="0.3764705882352941" d="M 69.5 179 L 78 180 Q 79.1 182.7 76.5 182 L 69.5 180 L 69.5 179 Z " /><path fill="rgb(81,168,197)" stroke="rgb(81,168,197)" stroke-width="1" opacity="0.3764705882352941" d="M 108.5 179 L 111 179.5 L 100.5 182 L 100.5 181 L 108.5 179 Z " /><path fill="rgb(81,168,197)" stroke="rgb(81,168,197)" stroke-width="1" opacity="0.3764705882352941" d="M 79.5 181 L 82 181.5 L 79.5 182 L 79.5 181 Z " /><path fill="rgb(81,168,197)" stroke="rgb(81,168,197)" stroke-width="1" opacity="0.3764705882352941" d="M 84.5 181 L 97 181.5 L 84.5 182 L 84.5 181 Z " /><path fill="rgb(90,185,217)" stroke="rgb(90,185,217)" stroke-width="1" opacity="0.996078431372549" d="M 85.5 25 L 106.5 26 L 120 30 L 118.5 33 L 110 38 Q 111.1 40.7 108.5 40 L 97.5 48 L 84.5 48 L 70.5 51 Q 58.3 55.8 50 64.5 Q 50.8 66.8 48.5 66 L 37 84.5 L 34 96.5 L 34 109.5 Q 38.4 132.6 53.5 145 L 61.5 151 L 70.5 155 L 82.5 158 L 98.5 158 L 110.5 155 L 118.5 151 L 132 139.5 L 139 128.5 L 137.5 127 L 97 126.5 L 103 119 L 104.5 119 L 119.5 104 L 169 104 L 168 116.5 L 163 133.5 Q 154.9 151.4 140.5 163 Q 128 174 109.5 179 L 98.5 181 L 82.5 181 L 75.5 179 L 69.5 179 L 50.5 171 L 30 154.5 L 21 142.5 L 13 124.5 Q 13.7 117.8 11 114.5 L 11 92.5 L 16 73.5 L 26 56 L 29 54.5 L 37.5 45 L 40.5 43 Q 49.2 34.7 61.5 30 L 74.5 26 L 84.5 26 L 85.5 25 Z " /><path fill="rgb(79,181,216)" stroke="rgb(79,181,216)" stroke-width="1" opacity="0.9294117647058824" d="M 77.5 25 L 85 25.5 L 77.5 26 L 77.5 25 Z " /><path fill="rgb(79,181,216)" stroke="rgb(79,181,216)" stroke-width="1" opacity="0.9294117647058824" d="M 97.5 25 L 104 25.5 L 97.5 26 L 97.5 25 Z " /><path fill="rgb(79,181,216)" stroke="rgb(79,181,216)" stroke-width="1" opacity="0.9294117647058824" d="M 65.5 28 L 68 28.5 L 62.5 30 L 62.5 29 L 65.5 28 Z " /><path fill="rgb(79,181,216)" stroke="rgb(79,181,216)" stroke-width="1" opacity="0.9294117647058824" d="M 120.5 30 L 121 31.5 L 119 32.5 L 120.5 30 Z " /><path fill="rgb(79,181,216)" stroke="rgb(79,181,216)" stroke-width="1" opacity="0.9294117647058824" d="M 55.5 32 L 57 32.5 L 52.5 35 L 53.5 33 L 55.5 32 Z " /><path fill="rgb(79,181,216)" stroke="rgb(79,181,216)" stroke-width="1" opacity="0.9294117647058824" d="M 117.5 33 L 116.5 35 L 117.5 33 Z " /><path fill="rgb(79,181,216)" stroke="rgb(79,181,216)" stroke-width="1" opacity="0.9294117647058824" d="M 114.5 35 L 111.5 39 L 110 38.5 L 114.5 35 Z " /><path fill="rgb(79,181,216)" stroke="rgb(79,181,216)" stroke-width="1" opacity="0.9294117647058824" d="M 48.5 36 L 46.5 39 L 44.5 40 L 45.5 38 L 48.5 36 Z " /><path fill="rgb(79,181,216)" stroke="rgb(79,181,216)" stroke-width="1" opacity="0.9294117647058824" d="M 42.5 40 L 40.5 43 L 42.5 40 Z " /><path fill="rgb(79,181,216)" stroke="rgb(79,181,216)" stroke-width="1" opacity="0.9294117647058824" d="M 108.5 40 L 107.5 42 L 108.5 40 Z " /><path fill="rgb(79,181,216)" stroke="rgb(79,181,216)" stroke-width="1" opacity="0.9294117647058824" d="M 104.5 43 L 103.5 45 L 104.5 43 Z " /><path fill="rgb(79,181,216)" stroke="rgb(79,181,216)" stroke-width="1" opacity="0.9294117647058824" d="M 37.5 44 L 39 44.5 L 29 53.5 L 27.5 56 L 28 54.5 L 37.5 44 Z " /><path fill="rgb(79,181,216)" stroke="rgb(79,181,216)" stroke-width="1" opacity="0.9294117647058824" d="M 101.5 45 L 99.5 48 L 97.5 49 L 84.5 49 L 84.5 48 L 97.5 48 L 101.5 45 Z " /><path fill="rgb(79,181,216)" stroke="rgb(79,181,216)" stroke-width="1" opacity="0.9294117647058824" d="M 73.5 50 L 76 50.5 L 73.5 51 L 73.5 50 Z " /><path fill="rgb(79,181,216)" stroke="rgb(79,181,216)" stroke-width="1" opacity="0.9294117647058824" d="M 70.5 51 L 72 51.5 L 68.5 53 L 68.5 52 L 70.5 51 Z " /><path fill="rgb(79,181,216)" stroke="rgb(79,181,216)" stroke-width="1" opacity="0.9294117647058824" d="M 60.5 56 L 59.5 58 L 60.5 56 Z " /><path fill="rgb(79,181,216)" stroke="rgb(79,181,216)" stroke-width="1" opacity="0.9294117647058824" d="M 57.5 58 L 55.5 61 L 57.5 58 Z " /><path fill="rgb(79,181,216)" stroke="rgb(79,181,216)" stroke-width="1" opacity="0.9294117647058824" d="M 23.5 60 L 22.5 62 L 23.5 60 Z " /><path fill="rgb(79,181,216)" stroke="rgb(79,181,216)" stroke-width="1" opacity="0.9294117647058824" d="M 51.5 63 L 50.5 65 L 51.5 63 Z " /><path fill="rgb(79,181,216)" stroke="rgb(79,181,216)" stroke-width="1" opacity="0.9294117647058824" d="M 20.5 65 L 19.5 67 L 20.5 65 Z " /><path fill="rgb(79,181,216)" stroke="rgb(79,181,216)" stroke-width="1" opacity="0.9294117647058824" d="M 48.5 66 L 47.5 68 L 48.5 66 Z " /><path fill="rgb(79,181,216)" stroke="rgb(79,181,216)" stroke-width="1" opacity="0.9294117647058824" d="M 18.5 68 L 19 69.5 L 16.5 73 L 17 71.5 L 18.5 68 Z " /><path fill="rgb(79,181,216)" stroke="rgb(79,181,216)" stroke-width="1" opacity="0.9294117647058824" d="M 46.5 69 L 44.5 72 L 46.5 69 Z " /><path fill="rgb(79,181,216)" stroke="rgb(79,181,216)" stroke-width="1" opacity="0.9294117647058824" d="M 12.5 84 L 13 87.5 L 12 87.5 L 12.5 84 Z " /><path fill="rgb(79,181,216)" stroke="rgb(79,181,216)" stroke-width="1" opacity="0.9294117647058824" d="M 11.5 89 L 12 91.5 L 11 91.5 L 11.5 89 Z " /><path fill="rgb(79,181,216)" stroke="rgb(79,181,216)" stroke-width="1" opacity="0.9294117647058824" d="M 35.5 91 L 36 93.5 L 35 93.5 L 35.5 91 Z " /><path fill="rgb(79,181,216)" stroke="rgb(79,181,216)" stroke-width="1" opacity="0.9294117647058824" d="M 10.5 96 L 11 109.5 L 10 109.5 L 10.5 96 Z " /><path fill="rgb(79,181,216)" stroke="rgb(79,181,216)" stroke-width="1" opacity="0.9294117647058824" d="M 34.5 96 L 35 109.5 L 34 109.5 L 34.5 96 Z " /><path fill="rgb(79,181,216)" stroke="rgb(79,181,216)" stroke-width="1" opacity="0.9294117647058824" d="M 118.5 104 L 104.5 119 L 118.5 104 Z " /><path fill="rgb(79,181,216)" stroke="rgb(79,181,216)" stroke-width="1" opacity="0.9294117647058824" d="M 35.5 112 L 36 114.5 L 35 114.5 L 35.5 112 Z " /><path fill="rgb(79,181,216)" stroke="rgb(79,181,216)" stroke-width="1" opacity="0.9294117647058824" d="M 11.5 115 L 12 117.5 L 11 117.5 L 11.5 115 Z " /><path fill="rgb(79,181,216)" stroke="rgb(79,181,216)" stroke-width="1" opacity="0.9294117647058824" d="M 12.5 119 L 13 122.5 L 12 122.5 L 12.5 119 Z " /><path fill="rgb(79,181,216)" stroke="rgb(79,181,216)" stroke-width="1" opacity="0.9294117647058824" d="M 102.5 120 L 97.5 127 L 137.5 127 L 139 128.5 L 135.5 134 L 137 131.5 L 138 128 L 95 127.5 L 102.5 120 Z " /><path fill="rgb(79,181,216)" stroke="rgb(79,181,216)" stroke-width="1" opacity="0.9294117647058824" d="M 166.5 121 L 167 123.5 L 166 123.5 L 166.5 121 Z " /><path fill="rgb(79,181,216)" stroke="rgb(79,181,216)" stroke-width="1" opacity="0.9294117647058824" d="M 42.5 131 L 43.5 133 L 42.5 131 Z " /><path fill="rgb(79,181,216)" stroke="rgb(79,181,216)" stroke-width="1" opacity="0.9294117647058824" d="M 44.5 134 L 46.5 137 L 44.5 134 Z " /><path fill="rgb(79,181,216)" stroke="rgb(79,181,216)" stroke-width="1" opacity="0.9294117647058824" d="M 134.5 135 L 133.5 137 L 134.5 135 Z " /><path fill="rgb(79,181,216)" stroke="rgb(79,181,216)" stroke-width="1" opacity="0.9294117647058824" d="M 47.5 138 L 53.5 145 L 47.5 138 Z " /><path fill="rgb(79,181,216)" stroke="rgb(79,181,216)" stroke-width="1" opacity="0.9294117647058824" d="M 160.5 138 L 160 139.5 L 158.5 142 L 159 140.5 L 160.5 138 Z " /><path fill="rgb(79,181,216)" stroke="rgb(79,181,216)" stroke-width="1" opacity="0.9294117647058824" d="M 131.5 139 L 126.5 145 L 131.5 139 Z " /><path fill="rgb(79,181,216)" stroke="rgb(79,181,216)" stroke-width="1" opacity="0.9294117647058824" d="M 21.5 143 L 22.5 145 L 21.5 143 Z " /><path fill="rgb(79,181,216)" stroke="rgb(79,181,216)" stroke-width="1" opacity="0.9294117647058824" d="M 157.5 143 L 157 144.5 L 154.5 148 L 156 145.5 L 157.5 143 Z " /><path fill="rgb(79,181,216)" stroke="rgb(79,181,216)" stroke-width="1" opacity="0.9294117647058824" d="M 55.5 145 L 65 151.5 L 63.5 152 Q 57.5 149.5 55.5 145 Z " /><path fill="rgb(79,181,216)" stroke="rgb(79,181,216)" stroke-width="1" opacity="0.9294117647058824" d="M 124.5 145 L 121.5 149 L 115.5 152 L 115.5 151 L 124.5 145 Z " /><path fill="rgb(79,181,216)" stroke="rgb(79,181,216)" stroke-width="1" opacity="0.9294117647058824" d="M 23.5 146 L 25.5 149 L 23.5 146 Z " /><path fill="rgb(79,181,216)" stroke="rgb(79,181,216)" stroke-width="1" opacity="0.9294117647058824" d="M 153.5 149 L 152.5 151 L 153.5 149 Z " /><path fill="rgb(79,181,216)" stroke="rgb(79,181,216)" stroke-width="1" opacity="0.9294117647058824" d="M 26.5 150 L 29.5 154 L 26.5 150 Z " /><path fill="rgb(79,181,216)" stroke="rgb(79,181,216)" stroke-width="1" opacity="0.9294117647058824" d="M 111.5 153 L 110.5 155 L 108 154.5 L 111.5 153 Z " /><path fill="rgb(79,181,216)" stroke="rgb(79,181,216)" stroke-width="1" opacity="0.9294117647058824" d="M 149.5 154 L 142.5 162 L 149.5 154 Z " /><path fill="rgb(79,181,216)" stroke="rgb(79,181,216)" stroke-width="1" opacity="0.9294117647058824" d="M 104.5 155 L 107 155.5 L 104.5 156 L 104.5 155 Z " /><path fill="rgb(79,181,216)" stroke="rgb(79,181,216)" stroke-width="1" opacity="0.9294117647058824" d="M 77.5 156 L 80 156.5 L 77.5 157 L 77.5 156 Z " /><path fill="rgb(79,181,216)" stroke="rgb(79,181,216)" stroke-width="1" opacity="0.9294117647058824" d="M 82.5 157 L 89 157.5 L 82.5 158 L 82.5 157 Z " /><path fill="rgb(79,181,216)" stroke="rgb(79,181,216)" stroke-width="1" opacity="0.9294117647058824" d="M 91.5 157 L 99 157.5 L 91.5 158 L 91.5 157 Z " /><path fill="rgb(79,181,216)" stroke="rgb(79,181,216)" stroke-width="1" opacity="0.9294117647058824" d="M 37.5 161 L 39.5 164 L 37.5 161 Z " /><path fill="rgb(79,181,216)" stroke="rgb(79,181,216)" stroke-width="1" opacity="0.9294117647058824" d="M 139.5 163 L 136.5 167 L 133.5 169 L 135.5 166 L 139.5 163 Z " /><path fill="rgb(79,181,216)" stroke="rgb(79,181,216)" stroke-width="1" opacity="0.9294117647058824" d="M 42.5 165 L 43.5 167 L 42.5 165 Z " /><path fill="rgb(79,181,216)" stroke="rgb(79,181,216)" stroke-width="1" opacity="0.9294117647058824" d="M 45.5 167 L 46.5 169 L 45.5 167 Z " /><path fill="rgb(79,181,216)" stroke="rgb(79,181,216)" stroke-width="1" opacity="0.9294117647058824" d="M 48.5 169 L 49.5 171 L 48.5 169 Z " /><path fill="rgb(79,181,216)" stroke="rgb(79,181,216)" stroke-width="1" opacity="0.9294117647058824" d="M 129.5 170 L 128.5 172 L 129.5 170 Z " /><path fill="rgb(79,181,216)" stroke="rgb(79,181,216)" stroke-width="1" opacity="0.9294117647058824" d="M 125.5 172 L 127 172.5 L 121.5 175 L 121.5 174 L 125.5 172 Z " /><path fill="rgb(79,181,216)" stroke="rgb(79,181,216)" stroke-width="1" opacity="0.9294117647058824" d="M 72.5 179 L 76 179.5 L 72.5 180 L 72.5 179 Z " /><path fill="rgb(79,181,216)" stroke="rgb(79,181,216)" stroke-width="1" opacity="0.9294117647058824" d="M 105.5 179 L 108 179.5 L 105.5 180 L 105.5 179 Z " /><path fill="rgb(79,181,216)" stroke="rgb(79,181,216)" stroke-width="1" opacity="0.9294117647058824" d="M 78.5 180 L 82 180.5 L 78.5 181 L 78.5 180 Z " /><path fill="rgb(79,181,216)" stroke="rgb(79,181,216)" stroke-width="1" opacity="0.9294117647058824" d="M 99.5 180 L 103 180.5 L 99.5 181 L 99.5 180 Z " /></svg>